<svg width="51" height="49" viewBox="0 0 51 49" fill="none" xmlns="http://www.w3.org/2000/svg">
<path fill-rule="evenodd" clip-rule="evenodd" d="M44.4287 13.6257C44.4287 17.7674 41.0001 21.1264 36.7725 21.1264C32.5449 21.1264 29.1182 17.7674 29.1182 13.6257C29.1182 9.48395 32.5449 6.125 36.7725 6.125C41.0001 6.125 44.4287 9.48395 44.4287 13.6257Z" stroke="white" stroke-width="1.5" stroke-linecap="round" stroke-linejoin="round"/>
<path fill-rule="evenodd" clip-rule="evenodd" d="M22.2265 13.6257C22.2265 17.7674 18.7998 21.1264 14.5703 21.1264C10.3446 21.1264 6.91602 17.7674 6.91602 13.6257C6.91602 9.48395 10.3446 6.125 14.5703 6.125C18.7998 6.125 22.2265 9.48395 22.2265 13.6257Z" stroke="white" stroke-width="1.5" stroke-linecap="round" stroke-linejoin="round"/>
<path fill-rule="evenodd" clip-rule="evenodd" d="M44.4287 35.2431C44.4287 39.3848 41.0001 42.7419 36.7725 42.7419C32.5449 42.7419 29.1182 39.3848 29.1182 35.2431C29.1182 31.1014 32.5449 27.7424 36.7725 27.7424C41.0001 27.7424 44.4287 31.1014 44.4287 35.2431Z" stroke="white" stroke-width="1.5" stroke-linecap="round" stroke-linejoin="round"/>
<path fill-rule="evenodd" clip-rule="evenodd" d="M22.2265 35.2431C22.2265 39.3848 18.7998 42.7419 14.5703 42.7419C10.3446 42.7419 6.91602 39.3848 6.91602 35.2431C6.91602 31.1014 10.3446 27.7424 14.5703 27.7424C18.7998 27.7424 22.2265 31.1014 22.2265 35.2431Z" stroke="white" stroke-width="1.5" stroke-linecap="round" stroke-linejoin="round"/>
</svg>
