<svg width="204" height="50" viewBox="0 0 204 50" fill="none" xmlns="http://www.w3.org/2000/svg">
<path fill-rule="evenodd" clip-rule="evenodd" d="M11.4117 43.3587L27.5601 9.55922C28.496 7.60013 27.6667 5.2532 25.7076 4.3172C23.7485 3.38121 21.4015 4.21059 20.4655 6.16969L4.3172 39.9692C3.38121 41.9283 4.2106 44.2752 6.16969 45.2112C8.12878 46.1472 10.4757 45.3178 11.4117 43.3587ZM27.4023 0.769951C23.4841 -1.10204 18.7903 0.556733 16.9183 4.47492L0.76995 38.2744C-1.10204 42.1926 0.556736 46.8865 4.47492 48.7585C8.39311 50.6305 13.087 48.9717 14.959 45.0535L31.1073 11.254C32.9793 7.3358 31.3205 2.64194 27.4023 0.769951Z" fill="#2A5DE1"/>
<path d="M17.6692 12.6794C15.498 8.91877 16.7864 4.11007 20.5471 1.93886C24.3077 -0.232342 29.1164 1.05615 31.2876 4.81678L50.5642 38.2047C52.7354 41.9654 51.4469 46.7741 47.6863 48.9453C43.9256 51.1165 39.1169 49.828 36.9457 46.0674L17.6692 12.6794Z" fill="#2A5DE1"/>
<path d="M85.2671 27.476H81.2111L83.2511 21.14H83.2751L85.2671 27.476ZM90.8591 33.5L85.2431 17.564H81.3791L75.6911 33.5H79.2191L80.3471 30.212H86.2271L87.2351 33.5H90.8591ZM96.415 31.148C94.879 31.148 93.751 29.804 93.751 27.692C93.751 25.268 94.663 24.092 96.415 24.092C98.191 24.092 99.079 25.316 99.079 27.884C99.079 29.876 97.927 31.148 96.415 31.148ZM98.983 33.86C98.983 35.42 97.663 36.404 96.007 36.404C94.447 36.404 93.415 35.564 93.415 34.148H90.511C90.511 37.196 92.935 39.092 96.223 39.092C99.511 39.092 102.103 37.172 102.103 33.62V21.692H98.983V23.156C98.239 21.956 97.159 21.38 95.671 21.38C92.815 21.38 90.511 23.852 90.511 27.524C90.511 30.62 91.855 33.596 95.743 33.596C97.279 33.596 98.551 32.972 98.983 31.916V33.86ZM106.43 26.444C106.55 24.812 107.582 23.852 108.83 23.852C110.054 23.852 111.206 24.692 111.254 26.444H106.43ZM114.47 28.412C114.47 23.732 112.55 21.38 108.926 21.38C105.302 21.38 103.214 23.732 103.214 27.38C103.214 31.652 105.182 33.812 109.118 33.812C111.638 33.812 113.582 32.444 114.302 30.02H111.086C110.87 30.836 109.982 31.34 108.974 31.34C107.438 31.34 106.43 30.188 106.334 28.412H114.47ZM118.668 33.5V27.356C118.668 25.46 119.604 24.5 121.524 24.5C121.812 24.5 122.1 24.524 122.388 24.572V21.38H121.98C120.708 21.38 119.508 21.524 118.476 23.108V21.692H115.548V33.5H118.668ZM129.825 29.012C129.801 30.404 128.601 31.58 126.993 31.58C126.009 31.58 125.481 31.148 125.481 30.26C125.481 29.252 126.057 28.748 127.833 28.412C128.985 28.196 129.537 28.028 129.849 27.716L129.825 29.012ZM132.969 33.5V26.036C132.969 23.06 131.673 21.38 127.929 21.38C124.137 21.38 122.793 23.084 122.745 25.532H125.649C125.793 24.476 126.369 23.78 127.785 23.78C129.009 23.78 129.777 24.236 129.777 25.004C129.777 25.82 129.345 26.132 127.785 26.348C124.641 26.78 122.361 27.164 122.361 30.572C122.361 32.492 123.609 33.812 126.297 33.812C127.881 33.812 129.129 33.26 129.873 32.444C129.897 32.804 129.969 33.212 130.065 33.5H132.969ZM143.302 30.788V20.324H145.774C148.966 20.324 150.214 21.764 150.214 25.364C150.214 28.964 148.966 30.788 146.062 30.788H143.302ZM146.734 33.5C150.862 33.5 153.622 30.212 153.622 25.364C153.622 20.516 150.55 17.564 146.23 17.564H140.062V33.5H146.734ZM157.904 33.5V21.692H154.784V33.5H157.904ZM157.904 20.276V17.372H154.784V20.276H157.904ZM164.993 31.148C163.457 31.148 162.329 29.804 162.329 27.692C162.329 25.268 163.241 24.092 164.993 24.092C166.769 24.092 167.657 25.316 167.657 27.884C167.657 29.876 166.505 31.148 164.993 31.148ZM167.561 33.86C167.561 35.42 166.241 36.404 164.585 36.404C163.025 36.404 161.993 35.564 161.993 34.148H159.089C159.089 37.196 161.513 39.092 164.801 39.092C168.089 39.092 170.681 37.172 170.681 33.62V21.692H167.561V23.156C166.817 21.956 165.737 21.38 164.249 21.38C161.393 21.38 159.089 23.852 159.089 27.524C159.089 30.62 160.433 33.596 164.321 33.596C165.857 33.596 167.129 32.972 167.561 31.916V33.86ZM175.248 33.5V21.692H172.128V33.5H175.248ZM175.248 20.276V17.372H172.128V20.276H175.248ZM183.369 28.796C183.369 30.26 182.793 31.1 181.545 31.1C180.273 31.1 179.745 30.236 179.745 28.748V23.9H186.273V21.692H179.745V18.5H176.673V29.06C176.673 31.604 178.041 33.812 181.497 33.812C184.833 33.812 186.273 31.58 186.273 29.084V25.724H183.369V28.796ZM194.7 29.012C194.676 30.404 193.476 31.58 191.868 31.58C190.884 31.58 190.356 31.148 190.356 30.26C190.356 29.252 190.932 28.748 192.708 28.412C193.86 28.196 194.412 28.028 194.724 27.716L194.7 29.012ZM197.844 33.5V26.036C197.844 23.06 196.548 21.38 192.804 21.38C189.012 21.38 187.668 23.084 187.62 25.532H190.524C190.668 24.476 191.244 23.78 192.66 23.78C193.884 23.78 194.652 24.236 194.652 25.004C194.652 25.82 194.22 26.132 192.66 26.348C189.516 26.78 187.236 27.164 187.236 30.572C187.236 32.492 188.484 33.812 191.172 33.812C192.756 33.812 194.004 33.26 194.748 32.444C194.772 32.804 194.844 33.212 194.94 33.5H197.844ZM202.34 33.5V17.372H199.22V33.5H202.34Z" fill="#3D67D2"/>
</svg>
