<svg width="48" height="48" viewBox="0 0 48 48" fill="none" xmlns="http://www.w3.org/2000/svg">
<path d="M4.45248 8.62382C4.64517 6.38804 6.2854 4.71471 8.51994 4.50814C11.2533 4.25546 15.7977 4 23 4C30.2023 4 34.7467 4.25546 37.4801 4.50814C39.7146 4.71471 41.3548 6.38804 41.5475 8.62382C41.7737 11.2487 42 15.499 42 22C42 28.501 41.7737 32.7513 41.5475 35.3762C41.3548 37.612 39.7146 39.2853 37.4801 39.4919C34.7467 39.7445 30.2023 40 23 40C15.7977 40 11.2533 39.7445 8.51994 39.4919C6.2854 39.2853 4.64517 37.612 4.45248 35.3762C4.22626 32.7513 4 28.501 4 22C4 15.499 4.22626 11.2487 4.45248 8.62382Z" fill="#ACB4C9"/>
<path fill-rule="evenodd" clip-rule="evenodd" d="M41.7749 12H4.22461C4.29404 10.6581 4.37314 9.5416 4.45224 8.62382C4.64493 6.38804 6.28516 4.71471 8.5197 4.50814C11.253 4.25546 15.7974 4 22.9998 4C30.2021 4 34.7465 4.25546 37.4798 4.50814C39.7144 4.71471 41.3546 6.38804 41.5473 8.62382C41.6264 9.5416 41.7055 10.6581 41.7749 12Z" fill="#576684"/>
<path d="M10 18.597C10 17.8191 10.5933 17.1755 11.3702 17.1364C12.6132 17.0738 14.7019 17 17.6364 17C20.1977 17 21.7925 17.0563 22.745 17.1121C23.4727 17.1549 24 17.7541 24 18.483V19.517C24 20.2459 23.4727 20.8451 22.745 20.8879C21.7925 20.9437 20.1977 21 17.6364 21C14.7019 21 12.6132 20.9262 11.3702 20.8636C10.5933 20.8245 10 20.1809 10 19.403V18.597Z" fill="#576684"/>
<path d="M10 26.4255C10 25.7224 10.4925 25.1365 11.1937 25.0854C11.8226 25.0396 12.7329 25 14 25C15.2671 25 16.1774 25.0396 16.8063 25.0854C17.5075 25.1365 18 25.7224 18 26.4255V27.5745C18 28.2776 17.5075 28.8635 16.8063 28.9146C16.1774 28.9604 15.2671 29 14 29C12.7329 29 11.8226 28.9604 11.1937 28.9146C10.4925 28.8635 10 28.2776 10 27.5745V26.4255Z" fill="#576684"/>
<path fill-rule="evenodd" clip-rule="evenodd" d="M32.8397 22.5251C33.3883 22.3727 33.8598 22.8439 33.8858 23.4126C33.9517 24.8499 34.2201 26.4773 34.995 27.528C35.3441 28.0013 36.0159 28.1175 36.435 27.7051C36.9365 27.2116 37.3191 26.4216 37.6074 25.5784C37.8379 24.904 38.6495 24.5936 39.2029 25.0427C42.0483 27.3521 45 30.9024 45 35.6938C45 42.0792 40.0751 44.9432 34 44.9432C27.9249 44.9432 23 42.0792 23 35.6938C23 29.1226 28.552 24.8856 31.7673 22.9829C32.1095 22.7804 32.47 22.6277 32.8397 22.5251Z" fill="#576684"/>
<path d="M34.3709 33.8539C34.1359 33.7342 33.8633 33.7342 33.6284 33.8539C32.6632 34.3455 30.1496 35.8719 30.1496 38.4328C30.1496 40.6209 31.8733 41.6023 33.9996 41.6023C36.1259 41.6023 37.8496 40.6209 37.8496 38.4328C37.8496 35.8719 35.336 34.3455 34.3709 33.8539Z" fill="#ACB4C9"/>
</svg>
